# xmcd CD Database Entry
#
# Track frame offsets:
# 150
# 17620
# 34927
# 47055
# 58350
# 73380
# 96720
# 109272
# 122395
# 135667
# 146670
# 161617
# 178442
# 194720
#
# Disc length: 2768 seconds
#
# Revision: 1
# Processed by: cddbd v1.4PL0 Copyright (c) Steve Scherf et al.
# Submitted via: RSJCDWriter_freedb_lib_OS/2 1.02
#
DISCID=e20ace0e
DTITLE=Paul and The Blue Delivery - Just In Time
DYEAR=1900
DGENRE=
TTITLE0=She's Dynamite
TTITLE1=Tough Times
TTITLE2=Keep What You Got
TTITLE3=Just My Kind
TTITLE4=Early Morning Blues
TTITLE5=Telephone Blues
TTITLE6=She Stole My Heart
TTITLE7=You're The One
TTITLE8=You Bark Better Than You Bite
TTITLE9=Moanin' For My Baby
TTITLE10=Next Time You See Me
TTITLE11=Everything's Gonna Be Alright
TTITLE12=My Home Is a Prison
TTITLE13=Bad Luck Blues
EXTD=p 2002 Last Buzz Record Co.\nBUZZ-8028
EXTT0=
EXTT1=
EXTT2=
EXTT3=
EXTT4=
EXTT5=
EXTT6=
EXTT7=
EXTT8=
EXTT9=
EXTT10=
EXTT11=
EXTT12=
EXTT13=
PLAYORDER=
